<svg id="_-e-폴더생성ON" data-name="-e-폴더생성ON" xmlns="http://www.w3.org/2000/svg" width="31.97" height="26.03" viewBox="0 0 31.97 26.03">
  <metadata><?xpacket begin="﻿" id="W5M0MpCehiHzreSzNTczkc9d"?>
<x:xmpmeta xmlns:x="adobe:ns:meta/" x:xmptk="Adobe XMP Core 5.6-c142 79.160924, 2017/07/13-01:06:39        ">
   <rdf:RDF xmlns:rdf="http://www.w3.org/1999/02/22-rdf-syntax-ns#">
      <rdf:Description rdf:about=""/>
   </rdf:RDF>
</x:xmpmeta>
                                                                                                    
                                                                                                    
                                                                                                    
                                                                                                    
                                                                                                    
                                                                                                    
                                                                                                    
                                                                                                    
                                                                                                    
                                                                                                    
                                                                                                    
                                                                                                    
                                                                                                    
                                                                                                    
                                                                                                    
                                                                                                    
                                                                                                    
                                                                                                    
                                                                                                    
                                                                                                    
                           
<?xpacket end="w"?></metadata>
<defs>
    <style>
      .cls-1 {
        fill: #ff9800;
      }

      .cls-1, .cls-2 {
        fill-rule: evenodd;
      }

      .cls-2 {
        fill: #fff;
      }
    </style>
  </defs>
  <path id="모양_4_복사" data-name="모양 4 복사" class="cls-1" d="M1527.01,1107.89h14.22a1.763,1.763,0,0,1,1.76,1.76v19.62a1.761,1.761,0,0,1-1.76,1.75h-28.44a1.769,1.769,0,0,1-1.77-1.75v-22.52a1.769,1.769,0,0,1,1.77-1.75h9.86m0,0,4.36,2.89" transform="translate(-1511.03 -1105)"/>
  <path id="모양_3" data-name="모양 3" class="cls-2" d="M1527.7,1120.7l4.6-.01a0.7,0.7,0,1,0,0-1.39l-4.6.01v-4.61a0.7,0.7,0,0,0-1.39,0v4.61h-4.61a0.7,0.7,0,0,0-.7.7,0.689,0.689,0,0,0,.21.49,0.663,0.663,0,0,0,.49.2h4.61l-0.01,4.61a0.683,0.683,0,0,0,.69.69,0.7,0.7,0,0,0,.7-0.7Z" transform="translate(-1511.03 -1105)"/>
</svg>
